<?xml version="1.0" encoding="utf-8"?>
<!-- Generator: Adobe Illustrator 19.2.1, SVG Export Plug-In . SVG Version: 6.00 Build 0)  -->
<svg version="1.1" id="Layer_1" xmlns="http://www.w3.org/2000/svg" xmlns:xlink="http://www.w3.org/1999/xlink" x="0px" y="0px"
	 viewBox="0 0 92.1 48" style="enable-background:new 0 0 92.1 48;" xml:space="preserve">
<g>
	<path d="M53.1,48h-8.4V25.9c0-4.6-2-6.9-6.1-6.9c-2.4,0-4.3,0.9-5.7,2.6c-1.4,1.7-2.1,4.3-2.1,7.8V48h-8.5V25.9c0-4.7-1.9-7-5.7-7
		c-2.3,0-4.3,0.9-5.9,2.8c-1.6,1.9-2.4,4.4-2.4,7.7V48H0V12.5h7.8V20c2.5-5.5,6.5-8.3,11.8-8.3c5.2,0,8.6,2.8,10.2,8.3
		c2.9-5.5,6.8-8.3,11.8-8.3c3.4,0,6.2,1.1,8.3,3.2c2.1,2.1,3.1,4.8,3.1,7.9V48z"/>
	<path d="M92.1,48h-8V24.8c0-2.5-0.5-4.3-1.6-5.3c-1.1-1-2.3-1.5-3.7-1.5c-2.3,0-4.2,0.9-5.7,2.7c-1.5,1.8-2.3,4.8-2.3,8.9V48h-8V0
		h8v18.7c2-5.1,5.5-7.7,10.5-7.7c7.3,0,10.9,4.2,10.9,12.6V48z"/>
</g>
</svg>
